<svg xmlns="http://www.w3.org/2000/svg" viewBox="0 0 43 38"><defs><style>.cls-1{fill:#515151;}</style></defs><title>資產 19</title><g id="圖層_2" data-name="圖層 2"><g id="圖層_1-2" data-name="圖層 1"><path class="cls-1" d="M43,1.49V36.58c0,.51-.75,1.42-1.26,1.42H.81C.3,38,0,37.09,0,36.58V18.06a1.06,1.06,0,0,1,.59-.88L14.3,10.36c.59-.31,1.7.21,1.7.88v5.24l11.91-6.12c.59-.31,1.09.21,1.09.88v5.19l5-2.62V1.49c0-.44.37-1.49.92-1.49h6.82C42.25,0,43,1,43,1.49ZM28.47,34.62,33.57,29H43V26H33.16a2.11,2.11,0,0,0-1.53.68l-4.44,4.88-4.49-5-6.38-7.21a1.7,1.7,0,0,0-2.62.07L8.49,26H0v3H9a2.11,2.11,0,0,0,1.58-.76l4.55-5.71,5,5.69,5.78,6.39a1.69,1.69,0,0,0,1.27.58h0A1.75,1.75,0,0,0,28.47,34.62Zm-.34-2ZM14.07,21.38Z"/></g></g></svg>