<svg xmlns="http://www.w3.org/2000/svg" viewBox="0 0 42.78 38.16"><defs><style>.cls-1{fill:#515151;}</style></defs><title>資產 17</title><g id="圖層_2" data-name="圖層 2"><g id="圖層_1-2" data-name="圖層 1"><path class="cls-1" d="M.61,22.08A.61.61,0,0,1,0,21.47V.66A.61.61,0,0,1,.61.05H18.89a.61.61,0,0,1,.61.61V4.12A1.11,1.11,0,0,1,19,5L15.1,7a1.11,1.11,0,0,0-.54.89V12.8a1,1,0,0,0,.56.83l3.81,1.55a1,1,0,0,1,.57.84v3.69c0,.34-.18.4-.4.15L16.3,16.6a2.83,2.83,0,0,0-1-.69H13.87a2.74,2.74,0,0,0-1,.69l-4.26,5a1.5,1.5,0,0,1-1,.47Zm13.81,3.55a1.08,1.08,0,0,1,.55-.87l2.57-1.21a.44.44,0,0,0,.15-.72L15,19.7a.5.5,0,0,0-.79,0l-3.57,4.19a6.35,6.35,0,0,1-.89.83,4.89,4.89,0,0,1-1.67.36H.61a.6.6,0,0,0-.61.6V37.5a.61.61,0,0,0,.61.61H18.89a.61.61,0,0,0,.61-.61v-4a1.08,1.08,0,0,0-.55-.87l-4-1.88a1,1,0,0,1-.55-.87ZM26.54,0a.61.61,0,0,0-.61.61V3.35a1.06,1.06,0,0,1-.55.87l-4.28,2a1,1,0,0,0-.55.87v5.07a1,1,0,0,0,.56.86L25.38,15a1,1,0,0,1,.55.86v6.09a1,1,0,0,1-.55.86l-2.13,1a.4.4,0,0,0-.14.69L26,27.39a.55.55,0,0,0,.82,0l3.52-4.12a6.24,6.24,0,0,1,.88-.82,4.67,4.67,0,0,1,1.67-.36L42,22a.6.6,0,0,1,.61.6v1.78A.61.61,0,0,1,42,25l-8.67,0a1.53,1.53,0,0,0-1,.46l-4.14,4.85a6.27,6.27,0,0,1-.88.83,1.38,1.38,0,0,1-.78.24h0a1.42,1.42,0,0,1-.75-.19,6.13,6.13,0,0,1-.92-.78L21,26.54c-.23-.24-.42-.16-.42.17v3.43a1,1,0,0,0,.56.86l4.27,1.94a1,1,0,0,1,.55.86v3.75a.61.61,0,0,0,.61.61H42.17a.61.61,0,0,0,.61-.61V.61A.61.61,0,0,0,42.17,0Z"/></g></g></svg>