<svg xmlns="http://www.w3.org/2000/svg" viewBox="0 0 44.16 37.47"><defs><style>.cls-1{fill:#515151;}</style></defs><title>資產 18</title><g id="圖層_2" data-name="圖層 2"><g id="圖層_1-2" data-name="圖層 1"><path class="cls-1" d="M22.6,14.94v1.64a.89.89,0,0,0,.89.89H43.12a.89.89,0,0,1,.89.89V36.5a.9.9,0,0,1-.89.9H23.49a6,6,0,0,0-.89,0,5.25,5.25,0,0,1-.89,0H.89A.89.89,0,0,1,0,36.58V.89A.89.89,0,0,1,.89,0H21.71a.89.89,0,0,1,.89.89v9.89h9.69l-2.77-3.4L28.4,6,24.51,1.21c-.31-.38-.17-.69.33-.69H43.12c.49,0,.64.31.33.69L39.56,6,38.43,7.38l-2.76,3.4h7.6a.89.89,0,0,1,.89.89v2.38a.89.89,0,0,1-.89.89Zm7.19,19L35.1,28h9V25H34.68a2.14,2.14,0,0,0-1.53.69l-4.62,5.15-4.1-4.74-.36-.41-6.89-7.52a1.69,1.69,0,0,0-1.32-.56,1.72,1.72,0,0,0-1.28.64L9.16,25H.09v3H9.63a2.06,2.06,0,0,0,1.57-.75L16,21.32l5.87,6.41.31.35,5.05,5.84a1.71,1.71,0,0,0,1.28.6h0A1.74,1.74,0,0,0,29.79,34Zm-.31-2Zm-1.92,0Zm7.82-4.23h0ZM8.86,25.39ZM15,20.22Z"/></g></g></svg>