<svg xmlns="http://www.w3.org/2000/svg" viewBox="0 0 40.82 39.81"><defs><style>.cls-1{fill:#515151;}</style></defs><title>資產 5</title><g id="圖層_2" data-name="圖層 2"><g id="圖層_1-2" data-name="圖層 1"><path class="cls-1" d="M8.26,28.14a5,5,0,0,0,.6,0,1,1,0,0,0,0-.24c0-.11,0-.47-.05-.79L7.75,21.46c-.09-.3-.26-.8-.38-1.1L6.82,19c-.12-.3-.08-.61.09-.68s.29-.73.29-1.05v-.29a2.77,2.77,0,0,0-.1-.83c-.06-.13-.65-.24-1-.24H2.75a2.82,2.82,0,0,0-.83.1c-.13.06-.24.65-.24,1v.29a2.82,2.82,0,0,0,.13.88c.08.17.37.55.25.85l-.55,1.4c-.11.3-.28.8-.37,1.1L.06,27.09c0,.32-.06.69-.06.82s.26.23.58.23Z"/><path class="cls-1" d="M13.49,22.3a6.37,6.37,0,0,1,.59-.53,1.27,1.27,0,0,1,.73-.23,1.25,1.25,0,0,1,.75.19,6.38,6.38,0,0,1,.86.78l5.09,5.74c.21.25.56.64.78.88l3.29,3.63c.21.24.39.17.39-.15V15.29a3.35,3.35,0,0,0-3.12-3.61,2.36,2.36,0,0,1-.88-.21c-.17-.09-.31-.83-.31-1.15V.58A.58.58,0,0,0,21.08,0H18.25a.59.59,0,0,0-.59.58v9.74a3.57,3.57,0,0,1-.13.95c-.08.2-.74.39-1.06.41a3.34,3.34,0,0,0-3.11,3.61v6.59C13.36,22.21,13.42,22.39,13.49,22.3Z"/><path class="cls-1" d="M29.92,29a6.47,6.47,0,0,1,.62-.5,4.54,4.54,0,0,1,1.54-.31H40c.33,0,.59.1.59.21s0-.05.07-.37l.21-1.68a.52.52,0,0,0-.52-.58H29.92a.5.5,0,0,0-.51.58l.27,2.26C29.72,28.88,29.83,29.06,29.92,29Z"/><path class="cls-1" d="M32.46,30.9a1.47,1.47,0,0,0-1,.43l-.9,1a1.43,1.43,0,0,0-.32,1l.7,5.74a.67.67,0,0,0,.65.58h7a.67.67,0,0,0,.65-.58l.93-7.59a.5.5,0,0,0-.51-.58Z"/><path class="cls-1" d="M25.19,36.31a5.72,5.72,0,0,1-.74-.69l-4.52-5-.78-.87-3.86-4.36a.47.47,0,0,0-.75,0l-.82,1a2,2,0,0,0-.36,1V39.66h12c.32,0,.59,0,.59,0v-2.5C26,36.84,25.38,36.45,25.19,36.31Z"/><path class="cls-1" d="M.58,30.9a.58.58,0,0,0-.58.58V37.9A3.36,3.36,0,0,0,.24,39l.55.55a3.36,3.36,0,0,0,1.12.24H7a3.3,3.3,0,0,0,1.12-.24L8.64,39a3.13,3.13,0,0,0,.24-1.12V31.48a.58.58,0,0,0-.58-.58Z"/></g></g></svg>