<svg xmlns="http://www.w3.org/2000/svg" viewBox="0 0 28.63 37.91"><defs><style>.cls-1{fill:#515151;}</style></defs><title>資產 2</title><g id="圖層_2" data-name="圖層 2"><g id="圖層_1-2" data-name="圖層 1"><path class="cls-1" d="M28.45,11.28H18.37A1.49,1.49,0,0,1,16.9,9.81V.13ZM1.72,23.86l4.85-6.1A1.58,1.58,0,0,1,9,17.7l6,6.72,4.19,4.63,4.13-4.56a2,2,0,0,1,1.43-.63h3.91V13l-10.79.05a2.69,2.69,0,0,1-2.68-2.68V0H2.1A2.1,2.1,0,0,0,0,2.1V35.37a2.54,2.54,0,0,0,2.54,2.54H26.09a2.57,2.57,0,0,0,2.54-2.54V26.66H25.1L20.34,31.9a1.61,1.61,0,0,1-1.19.53h0A1.64,1.64,0,0,1,18,31.89l-5.39-6-4.7-5.31L3.63,26a2,2,0,0,1-1.47.71H.33v-2.8Z"/></g></g></svg>