<svg xmlns="http://www.w3.org/2000/svg" viewBox="0 0 44 31.06"><defs><style>.cls-1{fill:#515151;}</style></defs><title>資產 4</title><g id="圖層_2" data-name="圖層 2"><g id="圖層_1-2" data-name="圖層 1"><path class="cls-1" d="M44,2.59V28.47a2.59,2.59,0,0,1-2.59,2.59H23.51A24.19,24.19,0,0,0,0,8.18V2.59A2.59,2.59,0,0,1,2.59,0H41.41A2.59,2.59,0,0,1,44,2.59ZM0,31.06V25.39a5.66,5.66,0,0,1,5.67,5.67Zm0-8.2V18.32A12.76,12.76,0,0,1,12.74,31.06H8.19A8.2,8.2,0,0,0,0,22.86Zm0-7.29V11a20,20,0,0,1,20,20H15.49A15.52,15.52,0,0,0,0,15.57Z"/></g></g></svg>