<svg xmlns="http://www.w3.org/2000/svg" viewBox="0 0 42.82 37.21"><defs><style>.cls-1{fill:#515151;}</style></defs><title>資產 20</title><g id="圖層_2" data-name="圖層 2"><g id="圖層_1-2" data-name="圖層 1"><path class="cls-1" d="M41.84,0H35c-.55,0-1.36.59-1.36,1V13.35L29.53,16v-5.2A1.13,1.13,0,0,0,28,9.89L15.65,16V10.77a1.09,1.09,0,0,0-1.48-.88L.53,16.72A1,1,0,0,0,0,17.6V36.11a1.07,1.07,0,0,0,.91,1.1H41.84a1.13,1.13,0,0,0,1-1.1V1A1.07,1.07,0,0,0,41.84,0Zm-30,27.32c0,.43-.21,1-.67,1H5.05c-.45,0-.62-.6-.62-1v-4c0-.42.17-.54.62-.54h6.09c.46,0,.67.12.67.54Zm13.29.13a.94.94,0,0,1-.85.9H18.53a.92.92,0,0,1-.81-.9V23.37c0-.43.39-.63.81-.63h5.72c.44,0,.85.2.85.63Z"/></g></g></svg>