<svg xmlns="http://www.w3.org/2000/svg" viewBox="0 0 39.22 38.25"><defs><style>.cls-1{fill:#515151;}</style></defs><title>資產 23</title><g id="圖層_2" data-name="圖層 2"><g id="圖層_1-2" data-name="圖層 1"><path class="cls-1" d="M38.7,24.71a.52.52,0,0,1,.52.58l-1.5,12.23a.68.68,0,0,1-.66.58H30.41a.68.68,0,0,1-.66-.58L28.26,25.29a.5.5,0,0,1,.51-.58ZM25,38.11V14.69a3.21,3.21,0,0,0-3-3.47,2.32,2.32,0,0,1-.87-.2c-.16-.09-.29-.81-.29-1.13V.58A.59.59,0,0,0,20.23,0H17.56A.59.59,0,0,0,17,.58V9.89a3.49,3.49,0,0,1-.13.94c-.07.19-.71.37-1,.39a3.21,3.21,0,0,0-3,3.47V38.11H25Zm-18.27.14A3.25,3.25,0,0,0,7.79,38l.51-.5a3.3,3.3,0,0,0,.24-1.12V27.18c0-.33,0-.85-.06-1.17l-1-5.36c-.09-.31-.26-.81-.38-1.11l-.51-1.3c-.11-.3-.08-.61.08-.68s.28-.7.28-1V16.3a2.7,2.7,0,0,0-.1-.82c-.06-.13-.63-.23-1-.23H2.67a2.7,2.7,0,0,0-.82.1c-.13.06-.24.63-.24,1v.23a2.77,2.77,0,0,0,.13.88c.08.15.35.53.23.83l-.51,1.3c-.11.3-.28.8-.38,1.11L.06,26c0,.32-.06.84-.06,1.17v9.21a3.3,3.3,0,0,0,.24,1.12l.5.5a3.36,3.36,0,0,0,1.12.24Z"/></g></g></svg>