<svg xmlns="http://www.w3.org/2000/svg" viewBox="0 0 45.22 34.14"><defs><style>.cls-1{fill:#515151;}</style></defs><title>資產 12</title><g id="圖層_2" data-name="圖層 2"><g id="圖層_1-2" data-name="圖層 1"><path class="cls-1" d="M45.22,15.68V29.52a.93.93,0,0,1-.92.93H41.52v2.77a.92.92,0,0,1-.92.92H34.14a.93.93,0,0,1-.92-.92V30.45H12v2.77a.92.92,0,0,1-.92.92H4.62a.93.93,0,0,1-.93-.92V30.45H.92A.93.93,0,0,1,0,29.52V15.68a.92.92,0,0,1,.92-.92H5.64L7.39.81A.93.93,0,0,1,8.3,0h2.78A.91.91,0,0,1,12,.81l1.75,14H44.3A.92.92,0,0,1,45.22,15.68ZM27.61,24.46a1.86,1.86,0,1,0-1.87-1.86A1.85,1.85,0,0,0,27.61,24.46Zm9.68,0a1.86,1.86,0,0,0,0-3.72,1.86,1.86,0,1,0,0,3.72Z"/></g></g></svg>