<svg xmlns="http://www.w3.org/2000/svg" viewBox="0 0 30.87 38.53"><defs><style>.cls-1{fill:#515151;}</style></defs><title>資產 21</title><g id="圖層_2" data-name="圖層 2"><g id="圖層_1-2" data-name="圖層 1"><path class="cls-1" d="M6.87,12.69h16.4a1.85,1.85,0,0,1,0,.23c0,4.53-3.69,9.33-8.21,9.33s-8.21-4.8-8.21-9.33A1.93,1.93,0,0,1,6.87,12.69ZM5.26,23.76A10.22,10.22,0,0,0,0,33c0,1.6,1.72,3.06,5.15,4.08Zm18.06-.86c-.86-.23-1.31-.5-2-.62a9.4,9.4,0,0,1-5.78,1.8h-.87a8.37,8.37,0,0,1-5.37-1.89c-.63.1-.62.35-1.48.54l-.11,15a31.63,31.63,0,0,0,7.66.85,37.12,37.12,0,0,0,7.82-.76ZM25.89,24l-.1,13.2c2.59-1,5.07-2.37,5.08-4C30.9,29.37,28.46,26,25.89,24ZM24,9.46h-.34a8.89,8.89,0,0,0-4.39-7.85,6.08,6.08,0,0,1,1.63,1.28V2.78a7.29,7.29,0,0,0-1.62-1.51c-.1-.05-.16-.13-.26-.18V1.3h0V1.06l.28.16A7.53,7.53,0,0,0,17.72.46h0l-.12,0a7.8,7.8,0,0,0-5.05,0l-.11,0a7.41,7.41,0,0,0-1.52.75l.29-.15-.29.16A7,7,0,0,0,9.2,2.8h0c.47-.62,1.06-.76,1.73-1.2a8.9,8.9,0,0,0-4.4,7.85H6.18c-.69,0-1.26.17-1.26.86s.57.86,1.26.86H24c.7,0,1.26-.16,1.26-.85S24.66,9.46,24,9.46Z"/></g></g></svg>