<svg xmlns="http://www.w3.org/2000/svg" viewBox="0 0 44.1 35.26"><defs><style>.cls-1{fill:#515151;}</style></defs><title>資產 13</title><g id="圖層_2" data-name="圖層 2"><g id="圖層_1-2" data-name="圖層 1"><path class="cls-1" d="M22.05,0A31.28,31.28,0,0,0,.59,8.48a1.86,1.86,0,0,0,0,2.68l3.53,3.53a1.86,1.86,0,0,0,2.58.05,22.68,22.68,0,0,1,30.78,0A1.85,1.85,0,0,0,40,14.69l3.53-3.53a1.86,1.86,0,0,0,0-2.68A31.28,31.28,0,0,0,22.05,0Zm0,13.71a17.58,17.58,0,0,0-11.72,4.45,1.84,1.84,0,0,0-.62,1.33,1.82,1.82,0,0,0,.55,1.37l3.54,3.55a1.85,1.85,0,0,0,2.51.11,8.93,8.93,0,0,1,11.48,0,1.85,1.85,0,0,0,2.51-.11l3.54-3.55a1.85,1.85,0,0,0-.07-2.7,17.58,17.58,0,0,0-11.72-4.45Zm0,13.71a3.89,3.89,0,0,0-2.77,1.15,3.92,3.92,0,1,0,5.54,0A3.89,3.89,0,0,0,22.05,27.42Z"/></g></g></svg>