<svg xmlns="http://www.w3.org/2000/svg" viewBox="0 0 39.98 39.07"><defs><style>.cls-1{fill:#515151;}</style></defs><title>資產 24</title><g id="圖層_2" data-name="圖層 2"><g id="圖層_1-2" data-name="圖層 1"><path class="cls-1" d="M10.94,5.94a2,2,0,0,1,.88-1.53L19.1.21a2,2,0,0,1,1.78,0l7.28,4.2a2,2,0,0,1,.89,1.53v8.39a2,2,0,0,1-.89,1.54l-7.28,4.19a2,2,0,0,1-1.78,0l-7.28-4.19a2,2,0,0,1-.88-1.54ZM0,33.12a2,2,0,0,0,.89,1.54l7.28,4.2a2,2,0,0,0,1.77,0l7.28-4.2a2,2,0,0,0,.89-1.54V24.74a2,2,0,0,0-.89-1.54L9.94,19a1.91,1.91,0,0,0-1.77,0L.89,23.2A2,2,0,0,0,0,24.74Zm21.87,0a2,2,0,0,0,.89,1.54L30,38.86a2,2,0,0,0,1.78,0l7.27-4.2A2,2,0,0,0,40,33.12V24.74a2,2,0,0,0-.89-1.54L31.82,19A1.93,1.93,0,0,0,30,19L22.76,23.2a2,2,0,0,0-.89,1.54Z"/></g></g></svg>