<svg xmlns="http://www.w3.org/2000/svg" viewBox="0 0 31.12 39.06"><defs><style>.cls-1{fill:#515151;}</style></defs><title>資產 9</title><g id="圖層_2" data-name="圖層 2"><g id="圖層_1-2" data-name="圖層 1"><path class="cls-1" d="M.14,29.22a1.28,1.28,0,0,0,1.16.71H29.83a1.31,1.31,0,0,0,1-2.1L27.08,23V11.52a.36.36,0,0,0,0-.15,11.67,11.67,0,0,0-23.33.26V23L.25,27.87A1.29,1.29,0,0,0,.14,29.22Z"/><path class="cls-1" d="M10.22,31.12a1.3,1.3,0,0,0-1.3,1.3,6.64,6.64,0,0,0,13.28,0,1.3,1.3,0,0,0-1.3-1.3Z"/></g></g></svg>