<svg xmlns="http://www.w3.org/2000/svg" viewBox="0 0 36.57 40.56"><defs><style>.cls-1{fill:#515151;}</style></defs><title>資產 8</title><g id="圖層_2" data-name="圖層 2"><g id="圖層_1-2" data-name="圖層 1"><path class="cls-1" d="M17.23,34.41a.81.81,0,0,0,.72.45H35.76a.8.8,0,0,0,.72-.46.8.8,0,0,0-.09-.85l-2.35-3V23.37a.28.28,0,0,0,0-.09,7.28,7.28,0,0,0-14.56.16v7.11l-2.17,3A.8.8,0,0,0,17.23,34.41Zm6.29,1.19a.81.81,0,0,0-.81.81,4.15,4.15,0,1,0,8.29,0,.82.82,0,0,0-.81-.81Zm-5.86-5.76v-7a8.45,8.45,0,0,1,8.48-8.45,8.69,8.69,0,0,1,2.3.32v-13A1.68,1.68,0,0,0,26.74,0h-25A1.72,1.72,0,0,0,0,1.71v29.8a1.69,1.69,0,0,0,1.71,1.71H15.26ZM6.74,5.93h15a1,1,0,1,1,0,2h-15a1,1,0,0,1-1-1A1,1,0,0,1,6.74,5.93Zm0,6.44h15a1,1,0,1,1,0,2h-15a1,1,0,1,1,0-2Zm-1,7.46a1,1,0,0,1,1-1h8.69a1,1,0,0,1,0,2.05H6.74A1,1,0,0,1,5.71,19.83Z"/></g></g></svg>