<svg xmlns="http://www.w3.org/2000/svg" viewBox="0 0 43.17 37.8"><defs><style>.cls-1{fill:#515151;}</style></defs><title>資產 27</title><g id="圖層_2" data-name="圖層 2"><g id="圖層_1-2" data-name="圖層 1"><path class="cls-1" d="M19.13,11.08V22.3a1.64,1.64,0,0,1-1.63,1.63H14a1.64,1.64,0,0,1-1.63-1.63V11.08a2.86,2.86,0,0,1,1.48-2.51h0a1,1,0,0,0,.59-1V1.48a.7.7,0,0,1-.74-.74h0A.7.7,0,0,1,14.4,0h3a.69.69,0,0,1,.74.74h0a.7.7,0,0,1-.74.74V7.53a1,1,0,0,0,.6,1h0A3.38,3.38,0,0,1,19.13,11.08ZM31.31,8.57h0a1,1,0,0,1-.59-1V1.48a.7.7,0,0,0,.74-.74h0A.7.7,0,0,0,30.72,0H27.77A.69.69,0,0,0,27,.74h0a.7.7,0,0,0,.74.74V7.53a1,1,0,0,1-.6,1h0a2.85,2.85,0,0,0-1.47,2.51V22.3a1.64,1.64,0,0,0,1.62,1.63h3.55a1.64,1.64,0,0,0,1.62-1.63V11.08A3.38,3.38,0,0,0,31.31,8.57Zm11.86,23a6.1,6.1,0,0,1-6,6.19H6A6.19,6.19,0,0,1,6,25.43H37.15A6.09,6.09,0,0,1,43.17,31.61Zm-31.56-.13A2.93,2.93,0,1,0,8.68,34.4,2.93,2.93,0,0,0,11.61,31.48Zm12.9,0a2.92,2.92,0,1,0-2.92,2.92A2.92,2.92,0,0,0,24.51,31.48Zm12.62,0a2.92,2.92,0,1,0-2.92,2.92A2.92,2.92,0,0,0,37.13,31.52Z"/></g></g></svg>