<svg xmlns="http://www.w3.org/2000/svg" viewBox="0 0 35.32 38.33"><defs><style>.cls-1{fill:#515151;}</style></defs><title>資產 3</title><g id="圖層_2" data-name="圖層 2"><g id="圖層_1-2" data-name="圖層 1"><path class="cls-1" d="M34,0H1.37A1.3,1.3,0,0,0,0,1.37V37a1.29,1.29,0,0,0,1.37,1.37H34A1.29,1.29,0,0,0,35.32,37V1.37A1.37,1.37,0,0,0,34,0ZM15.88,27.11,10.4,32.58a1.2,1.2,0,0,1-1,.41,1.22,1.22,0,0,1-1-.41L5.75,29.43A1.36,1.36,0,0,1,7.8,27.65l1.78,2.06L14,25.33a1.32,1.32,0,0,1,1.92,0A1.44,1.44,0,0,1,15.88,27.11Zm0-9.72L10.4,22.86a1.2,1.2,0,0,1-1,.41,1.22,1.22,0,0,1-1-.41L5.75,19.71A1.36,1.36,0,0,1,7.8,17.93L9.58,20,14,15.61a1.32,1.32,0,0,1,1.92,0C16.29,15.88,16.29,16.84,15.88,17.39Zm0-9.59L10.4,13.28a1.23,1.23,0,0,1-1,.41,1.25,1.25,0,0,1-1-.41L5.75,10.13A1.36,1.36,0,1,1,7.8,8.35l1.65,1.92,4.38-4.38a1.31,1.31,0,0,1,1.91,0A1.45,1.45,0,0,1,15.88,7.8ZM28.61,30.26H19a1.37,1.37,0,0,1,0-2.74h9.58a1.37,1.37,0,0,1,0,2.74Zm0-9.72H19a1.37,1.37,0,0,1,0-2.74h9.58a1.37,1.37,0,0,1,0,2.74Zm0-9.72H19a1.3,1.3,0,0,1-1.37-1.37A1.29,1.29,0,0,1,19,8.08h9.58A1.29,1.29,0,0,1,30,9.45,1.3,1.3,0,0,1,28.61,10.82Z"/></g></g></svg>