<svg xmlns="http://www.w3.org/2000/svg" viewBox="0 0 32.74 37.43"><defs><style>.cls-1{fill:#515151;}</style></defs><title>資產 32</title><g id="圖層_2" data-name="圖層 2"><g id="圖層_1-2" data-name="圖層 1"><path class="cls-1" d="M0,33.92a3.51,3.51,0,0,0,3.51,3.51H29.23a3.51,3.51,0,0,0,3.51-3.51V14H0ZM23.39,19.59a.87.87,0,0,1,.87-.88h2.93a.87.87,0,0,1,.87.88v2.92a.88.88,0,0,1-.87.88H24.26a.88.88,0,0,1-.87-.88Zm0,9.36a.87.87,0,0,1,.87-.88h2.93a.87.87,0,0,1,.87.88v2.92a.88.88,0,0,1-.87.88H24.26a.88.88,0,0,1-.87-.88ZM14,19.59a.88.88,0,0,1,.88-.88h2.92a.87.87,0,0,1,.88.88v2.92a.88.88,0,0,1-.88.88H14.91a.89.89,0,0,1-.88-.88ZM14,29a.88.88,0,0,1,.88-.88h2.92a.87.87,0,0,1,.88.88v2.92a.88.88,0,0,1-.88.88H14.91a.89.89,0,0,1-.88-.88ZM4.68,19.59a.87.87,0,0,1,.87-.88H8.48a.87.87,0,0,1,.87.88v2.92a.88.88,0,0,1-.87.88H5.55a.88.88,0,0,1-.87-.88Zm0,9.36a.87.87,0,0,1,.87-.88H8.48a.87.87,0,0,1,.87.88v2.92a.88.88,0,0,1-.87.88H5.55a.88.88,0,0,1-.87-.88ZM29.23,4.68H25.72V1.17A1.17,1.17,0,0,0,24.56,0H22.22a1.18,1.18,0,0,0-1.17,1.17V4.68H11.69V1.17A1.17,1.17,0,0,0,10.52,0H8.19A1.17,1.17,0,0,0,7,1.17V4.68H3.51A3.51,3.51,0,0,0,0,8.19V11.7H32.74V8.19A3.51,3.51,0,0,0,29.23,4.68Z"/></g></g></svg>