<svg xmlns="http://www.w3.org/2000/svg" viewBox="0 0 30.99 37.87"><defs><style>.cls-1{fill:#515151;}</style></defs><title>資產 11</title><g id="圖層_2" data-name="圖層 2"><g id="圖層_1-2" data-name="圖層 1"><path class="cls-1" d="M30.9,11.5v-.15a1.71,1.71,0,0,0-.32-.5L26.32,6.59a9.65,9.65,0,0,0-1.47-1.46L20.25.52a1.81,1.81,0,0,0-.5-.33h-.16A1.8,1.8,0,0,0,19,0H3.44A3.44,3.44,0,0,0,0,3.44v31a3.44,3.44,0,0,0,3.44,3.44H27.55A3.44,3.44,0,0,0,31,34.43V12A1.71,1.71,0,0,0,30.9,11.5ZM10.33,31H6.89V10.33h3.44Zm6.89,0H13.77V20.66h3.45Zm6.88,0H20.66V24.1H24.1Z"/></g></g></svg>