<svg xmlns="http://www.w3.org/2000/svg" viewBox="0 0 37.92 39.61"><defs><style>.cls-1{fill:#515151;}</style></defs><title>資產 16</title><g id="圖層_2" data-name="圖層 2"><g id="圖層_1-2" data-name="圖層 1"><path class="cls-1" d="M37.43,24.56l-3.4-2A15.56,15.56,0,0,0,34,17l3.4-2a1,1,0,0,0,.44-1.12A20.09,20.09,0,0,0,33.5,6.35a1,1,0,0,0-1.18-.18l-3.4,2a15.25,15.25,0,0,0-4.86-2.81V1.41a1,1,0,0,0-.75-.93,20,20,0,0,0-8.72,0,1,1,0,0,0-.75.93V5.34A15.78,15.78,0,0,0,9,8.15l-3.39-2a1,1,0,0,0-1.18.19A19.82,19.82,0,0,0,0,13.92,1,1,0,0,0,.48,15l3.41,2a15.12,15.12,0,0,0,0,5.61l-3.41,2A1,1,0,0,0,0,25.69a20,20,0,0,0,4.37,7.55,1,1,0,0,0,1.18.19l3.41-2a15,15,0,0,0,4.85,2.8v3.93a1,1,0,0,0,.75.94,20.24,20.24,0,0,0,8.73,0,1,1,0,0,0,.75-.94V34.26a15.59,15.59,0,0,0,4.85-2.8l3.4,2a1,1,0,0,0,1.18-.19,19.7,19.7,0,0,0,4.37-7.55A1,1,0,0,0,37.43,24.56ZM19,26.19a6.39,6.39,0,1,1,6.39-6.39A6.4,6.4,0,0,1,19,26.19Z"/></g></g></svg>