<svg xmlns="http://www.w3.org/2000/svg" viewBox="0 0 36.68 36.67"><defs><style>.cls-1{fill:#515151;}</style></defs><title>資產 10</title><g id="圖層_2" data-name="圖層 2"><g id="圖層_1-2" data-name="圖層 1"><path class="cls-1" d="M0,33a3.66,3.66,0,0,0,3.67,3.66H33A3.66,3.66,0,0,0,36.67,33V14.67H0Z"/><path class="cls-1" d="M36.67,3.67A3.66,3.66,0,0,0,33,0H3.67A3.67,3.67,0,0,0,0,3.67V11H36.68V3.67Zm-20.17,4a2.13,2.13,0,1,1,2.12-2.13A2.12,2.12,0,0,1,16.5,7.67Zm7.35,0A2.13,2.13,0,1,1,26,5.54,2.12,2.12,0,0,1,23.85,7.67Zm7.34,0a2.13,2.13,0,1,1,2.12-2.12A2.12,2.12,0,0,1,31.19,7.65Z"/></g></g></svg>