<svg xmlns="http://www.w3.org/2000/svg" viewBox="0 0 49.75 36.35"><defs><style>.cls-1{fill:#515151;}</style></defs><title>資產 7</title><g id="圖層_2" data-name="圖層 2"><g id="圖層_1-2" data-name="圖層 1"><circle class="cls-1" cx="17.53" cy="8.82" r="8.82"/><circle class="cls-1" cx="36.2" cy="15.52" r="6.8"/><path class="cls-1" d="M49.72,32.33A13.7,13.7,0,0,0,41.14,21.8a7.24,7.24,0,0,1-4.94,1.71,7.28,7.28,0,0,1-4.94-1.75A13.75,13.75,0,0,0,22.71,32a2.75,2.75,0,0,0,2.13,3,42.59,42.59,0,0,0,11.39,1.34c5.63,0,9.17-.55,11.67-1.41A2.38,2.38,0,0,0,49.72,32.33Z"/><path class="cls-1" d="M20.92,32.23A14.64,14.64,0,0,1,29.82,21,15.92,15.92,0,0,0,24,16.82a9.38,9.38,0,0,1-6.39,2.23,9.49,9.49,0,0,1-6.42-2.26A17.78,17.78,0,0,0,.06,30,3.54,3.54,0,0,0,2.8,34,55.87,55.87,0,0,0,17.56,35.7c2.09,0,4-.07,5.66-.17A3,3,0,0,1,20.92,32.23Z"/></g></g></svg>