<svg xmlns="http://www.w3.org/2000/svg" viewBox="0 0 41.48 37"><defs><style>.cls-1{fill:#fff;}</style></defs><title>資產 26</title><g id="圖層_2" data-name="圖層 2"><g id="圖層_1-2" data-name="圖層 1"><path class="cls-1" d="M0,.64A.59.59,0,0,1,.59.05H18.31a.58.58,0,0,1,.59.59V4a1.06,1.06,0,0,1-.52.86L14.64,6.77a1.08,1.08,0,0,0-.53.86v4.78a1,1,0,0,0,.55.81l3.7,1.5a.93.93,0,0,1,.54.81v5.81a1,1,0,0,1-.53.84L14.52,24a1,1,0,0,0-.54.84V29a1,1,0,0,0,.54.84l3.85,1.83a1,1,0,0,1,.53.84v3.87a.59.59,0,0,1-.59.59H.59A.6.6,0,0,1,0,36.36ZM25.73,0a.6.6,0,0,0-.59.59V3.25a1,1,0,0,1-.53.84l-4.15,2a1,1,0,0,0-.53.84v4.92a1,1,0,0,0,.53.83l4.14,1.88a1,1,0,0,1,.54.83v5.91a1,1,0,0,1-.54.83L20.46,24a1,1,0,0,0-.53.84v4.42a1,1,0,0,0,.53.84l4.14,1.88a1,1,0,0,1,.54.83v3.64a.6.6,0,0,0,.59.59H40.89a.6.6,0,0,0,.59-.59V.59A.6.6,0,0,0,40.89,0Z"/></g></g></svg>