<svg xmlns="http://www.w3.org/2000/svg" viewBox="0 0 42.99 36.48"><defs><style>.cls-1{fill:#fff;}</style></defs><title>資產 23</title><g id="圖層_2" data-name="圖層 2"><g id="圖層_1-2" data-name="圖層 1"><path class="cls-1" d="M42.12,14.55a.87.87,0,0,0,.87-.87V11.36a.87.87,0,0,0-.87-.87h-7.4l2.69-3.3,1.1-1.35L42.3,1.18c.3-.37.15-.67-.32-.67H24.18c-.48,0-.62.3-.32.67l3.79,4.66,1.09,1.35,2.69,3.3H22V.87A.87.87,0,0,0,21.13,0H.87A.87.87,0,0,0,0,.87V35.61a.88.88,0,0,0,.87.87H21.13a5,5,0,0,0,.87,0,5,5,0,0,1,.87,0H42a.87.87,0,0,0,.86-.87V17.88A.87.87,0,0,0,42,17H22.87a.87.87,0,0,1-.87-.87V14.55Z"/></g></g></svg>