<svg xmlns="http://www.w3.org/2000/svg" viewBox="0 0 44.67 30.39"><defs><style>.cls-1{fill:#515151;}</style></defs><title>資產 28</title><g id="圖層_2" data-name="圖層 2"><g id="圖層_1-2" data-name="圖層 1"><path class="cls-1" d="M44.67,25.19V19.34c0-1.22,0-2.64,0-4A3.35,3.35,0,0,0,41.27,12l-2.2-.08C38.17,10.57,37,8.76,36,7c-1.76-3-3.89-2.76-3.89-2.76H24.61V1.54A1.54,1.54,0,0,0,23.07,0H1.54A1.54,1.54,0,0,0,0,1.54V24.86A1.54,1.54,0,0,0,1.54,26.4H4.25a5.95,5.95,0,0,0,11.23,0H31.15a6,6,0,0,0,11.24,0h1.38C44.73,26.4,44.67,25.19,44.67,25.19ZM9.86,27.32a2.88,2.88,0,1,1,2.88-2.88A2.87,2.87,0,0,1,9.86,27.32ZM27.21,12.13a1.43,1.43,0,0,1-1.3-1.54V7.9a1.43,1.43,0,0,1,1.3-1.53h4.45C33,6.37,33.82,8,33.82,8s1,1.73,1.5,2.56.41,1.54-1.3,1.54Zm9.56,15.19a2.88,2.88,0,1,1,2.88-2.88A2.88,2.88,0,0,1,36.77,27.32Z"/></g></g></svg>