<svg xmlns="http://www.w3.org/2000/svg" viewBox="0 0 29.85 42"><defs><style>.cls-1{fill:#515151;}</style></defs><title>資產 26</title><g id="圖層_2" data-name="圖層 2"><g id="圖層_1-2" data-name="圖層 1"><path class="cls-1" d="M29.85,8V39.73A2.21,2.21,0,0,1,27.71,42H2.13A2.21,2.21,0,0,1,0,39.73V8A2.21,2.21,0,0,1,2.13,5.73H5V8a3,3,0,0,0,2.92,3.09H21.7A3,3,0,0,0,24.62,8V5.73h3.05A2.22,2.22,0,0,1,29.85,8ZM7.64,9.61H22.17a.93.93,0,0,0,.9-1V4.81a.93.93,0,0,0-.9-1H19.35A4.61,4.61,0,0,0,14.9,0a4.63,4.63,0,0,0-4.45,3.85H7.64a.94.94,0,0,0-.91,1V8.65A.94.94,0,0,0,7.64,9.61Zm17,8.71a.93.93,0,0,0-.89-1H6a1,1,0,0,0,0,1.91H23.78A.92.92,0,0,0,24.67,18.32Zm0,7.86a.93.93,0,0,0-.89-1H6a1,1,0,0,0,0,1.91H23.78A.93.93,0,0,0,24.67,26.18ZM24.58,34a.93.93,0,0,0-.89-1H5.94a1,1,0,0,0,0,1.91H23.69A.93.93,0,0,0,24.58,34Z"/></g></g></svg>