<svg xmlns="http://www.w3.org/2000/svg" viewBox="0 0 471.66 180.15"><g id="圖層_2" data-name="圖層 2"><g id="圖層_1-2" data-name="圖層 1"><path d="M127.1,83.55V27.75h18.07V36.4l10.94,4V70.16L145.17,73.7v9.85Zm73.08-55.8V36.4l11.08,4V70.16L200.18,73.7v9.85h28.88V27.75Z"/><path d="M.25,8.61v94.05H242.16v-94ZM229.16,90.55h-102V20.75h102Zm26.6,12.18h-9.6V23.22h9.6Zm215.4-46.48v46h-91v-65h72Z"/><path d="M.25,106.85V179.9H471.41V106.85Z" fill="#d6d6d6"/><path d="M380.16,46.52V69.25H271.83v-.2l-6.72-5.55-3.4-2.81H256V54.38h6.19L265.11,52l7-5.75v.27ZM397.42.25h-15V14.46L394,32.73v4.52h5.33V32.73L411,14.46V.25Z"/><path d="M471.41,106.85V179.9H.25V106.85ZM394,32.73v4.52h5.33V32.73L411,14.46V.25H382.4V14.46ZM127.1,83.55h18.07V73.7l10.94-3.54V40.37l-10.94-4V27.75H127.1M.25,8.61v94.05H242.16v-94Zm245.91,94.12h9.6V23.22h-9.6ZM380.41,46.52l-108.52-.27L262,54.38h-6.1m0,6.31h5.57l10.41,8.56H380.41M229.06,27.75H200.18V36.4l11.08,4V70.16L200.18,73.7v9.85h28.88m151.1,18.7h91v-46l-19-19h-72Zm-253-11.7h102V20.75h-102Z" fill="none" stroke="#000" stroke-miterlimit="10" stroke-width="0.5"/></g></g></svg>