<svg xmlns="http://www.w3.org/2000/svg" viewBox="0 0 470.5 103.18"><g id="圖層_2" data-name="圖層 2"><g id="圖層_1-2" data-name="圖層 1"><path d="M126.78,83.71V27.8h18v8.67l10.91,4V70.29l-10.91,3.55v9.87ZM199.69,27.8v8.67l11.05,4V70.29l-11.05,3.55v9.87H228.5V27.8Z" fill="#7e7e7e"/><path d="M.25,8.62v94.24H241.57V8.62ZM228.6,90.73H126.85V20.79H228.6Zm26.53,12.2h-9.57V23.26h9.57ZM470,56.36v46.09H379.23V37.32h71.82Z" fill="#74c19a"/><path d="M379.22,46.62V69.38H271.16v-.2l-6.7-5.56-3.4-2.82h-5.65V54.48h6.18l2.87-2.38,6.94-5.76v.28ZM396.45.25h-15V14.48l11.6,18.31v4.53h5.31V32.79L410,14.48V.25Z" fill="#afafaf"/><path d="M393.06,32.79v4.53h5.31V32.79L410,14.48V.25H381.46V14.48ZM126.78,83.71h18V73.84l10.91-3.55V40.44l-10.91-4V27.8h-18M.25,8.62v94.24H241.57V8.62Zm245.31,94.31h9.57V23.26h-9.57ZM379.05,46.62l-107.82-.28-9.81,8.14h-6.06m0,6.32h5.53l10.34,8.58H379.05M228.5,27.8H199.69v8.67l11.05,4V70.29l-11.05,3.55v9.87H228.5m-101.65,7H228.6V20.79H126.85ZM379,102.45h91.27V56.36l-19.06-19H379Z" fill="none" stroke="#000" stroke-miterlimit="10" stroke-width="0.5"/></g></g></svg>